<?xml version="1.0" standalone="no"?>
<!DOCTYPE svg PUBLIC "-//W3C//DTD SVG 20010904//EN"
 "http://www.w3.org/TR/2001/REC-SVG-20010904/DTD/svg10.dtd">
<svg version="1.0" xmlns="http://www.w3.org/2000/svg"
 width="484.000000pt" height="516.000000pt" viewBox="0 0 484.000000 516.000000"
 preserveAspectRatio="xMidYMid meet">

<g transform="translate(0.000000,516.000000) scale(0.100000,-0.100000)"
fill="#000000" stroke="none">
<path d="M2325 4630 c-18 -8 -17 -9 8 -9 38 -1 95 -32 134 -73 29 -30 63 -120
63 -166 0 -27 -28 7 -34 41 -8 42 -58 103 -106 127 -20 10 -60 22 -88 26 -44
6 -60 3 -106 -20 -71 -35 -156 -126 -156 -167 0 -42 -18 -36 -23 9 -2 20 -4
-3 -4 -53 -1 -77 0 -84 8 -46 5 25 20 56 34 71 14 14 23 29 19 32 -7 8 37 77
67 105 55 50 146 67 214 39 38 -16 107 -85 101 -101 -2 -5 13 -27 32 -48 30
-30 35 -41 26 -55 -21 -32 -62 -26 -157 23 -32 17 -73 21 -48 6 9 -6 10 -14 5
-24 -8 -15 -13 -17 -32 -17 -4 0 -13 -10 -21 -22 -14 -23 -14 -23 8 -4 20 18
22 18 39 3 22 -20 32 -21 32 -4 0 6 4 18 9 26 14 22 93 -30 188 -124 44 -44
75 -69 68 -55 -7 14 -27 38 -44 54 l-31 30 6 106 c8 128 0 159 -58 219 -71 73
-108 90 -153 71z"/>
<path d="M2117 4569 c-42 -34 -75 -64 -73 -66 2 -2 36 21 76 51 69 54 82 60
140 69 14 3 5 5 -20 6 -41 1 -52 -5 -123 -60z"/>
<path d="M3866 4585 c-38 -35 -69 -110 -63 -151 4 -25 -3 -48 -29 -97 -38 -72
-96 -208 -91 -214 2 -1 19 30 37 70 92 197 113 237 129 237 7 0 5 -66 -5 -217
l-6 -82 -41 -24 c-23 -14 -71 -39 -105 -57 -35 -18 -66 -40 -69 -49 -2 -9 -9
-24 -14 -33 -6 -12 -6 -18 1 -18 16 0 12 -33 -19 -147 -16 -60 -34 -127 -40
-150 -8 -31 -17 -43 -30 -43 -10 0 -85 -22 -167 -49 -228 -75 -290 -92 -362
-98 -86 -7 -96 3 -90 87 2 33 2 60 -2 60 -3 0 -33 -28 -67 -62 -62 -64 -76
-93 -88 -180 -6 -46 -19 -59 -40 -39 -21 19 -271 90 -467 132 -52 11 -63 19
-149 105 l-93 94 57 58 57 58 3 131 c1 73 6 135 10 139 14 14 7 54 -13 72 -25
20 -44 85 -36 118 4 13 2 24 -3 24 -32 0 -42 -116 -17 -192 8 -24 19 -88 26
-142 11 -92 11 -101 -6 -113 -10 -7 -25 -13 -35 -13 -16 0 -74 57 -112 110
-39 55 -1 -10 56 -94 l60 -89 -29 -24 c-16 -14 -56 -38 -89 -54 -33 -15 -48
-26 -34 -23 15 3 29 1 32 -4 10 -15 75 -274 82 -322 5 -40 2 -51 -29 -98 -39
-59 -44 -71 -20 -51 20 17 59 96 67 136 6 31 -14 115 -66 276 -14 42 -21 79
-16 82 4 3 27 -16 51 -42 24 -26 66 -73 95 -103 l51 -55 199 -49 c109 -28 239
-66 288 -86 l90 -36 -3 -100 -3 -99 31 35 c29 32 31 33 26 10 -3 -14 -18 -85
-33 -157 -15 -73 -30 -133 -33 -133 -4 0 -17 53 -30 118 -26 136 -38 174 -39
125 -1 -18 -5 -33 -9 -33 -4 0 -25 29 -45 65 -47 81 -73 100 -131 92 -53 -8
-96 -26 -96 -42 0 -6 56 -70 125 -142 69 -72 125 -134 125 -137 0 -7 -117 52
-260 129 l-85 46 45 -43 c25 -24 75 -69 110 -101 36 -33 54 -52 40 -43 -14 9
-38 23 -55 32 -16 9 -90 57 -164 105 -74 49 -135 88 -136 87 -5 -6 217 -203
290 -258 44 -33 114 -77 155 -99 47 -25 69 -42 60 -45 -24 -8 -190 -26 -242
-26 -45 0 -50 3 -86 49 -21 26 -65 93 -97 147 -32 55 -66 113 -76 129 l-19 30
0 -30 c0 -39 26 -200 39 -246 14 -47 51 -80 138 -123 86 -43 243 -96 285 -96
l30 0 -36 -64 c-20 -35 -36 -67 -36 -70 0 -3 31 8 69 24 39 17 74 30 79 30 21
0 99 -72 109 -102 7 -18 34 -109 60 -203 l48 -170 3 -571 3 -572 -93 -53
c-145 -83 -267 -143 -275 -136 -3 4 2 35 11 69 72 258 227 900 225 935 0 15
-29 -64 -138 -387 -100 -292 -260 -668 -314 -734 l-23 -28 -52 26 c-29 14 -52
31 -52 38 0 6 33 65 74 132 122 201 218 373 193 346 -3 -3 -71 -104 -152 -225
-81 -121 -150 -223 -154 -227 -3 -4 -29 6 -57 22 l-52 29 73 213 c67 198 81
230 202 448 217 393 423 796 423 828 0 4 -21 -27 -46 -68 -86 -139 -330 -504
-414 -620 -119 -165 -260 -331 -260 -306 0 4 39 69 86 144 48 75 119 189 159
252 72 114 344 566 352 585 8 18 -27 -27 -145 -190 -282 -387 -606 -811 -645
-843 -23 -19 -27 33 -27 378 0 275 9 452 25 499 4 8 28 -11 69 -55 78 -85 139
-118 202 -111 49 5 130 50 196 109 l43 38 -60 -29 c-138 -66 -223 -63 -296 10
-51 51 -129 171 -129 198 0 17 55 169 65 179 1 2 35 -39 73 -90 70 -93 149
-181 187 -208 11 -8 3 8 -18 35 -77 103 -139 198 -168 258 -28 61 -37 107 -21
107 5 0 39 -49 75 -108 59 -97 157 -234 157 -220 0 3 -45 138 -99 299 -125
369 -181 548 -181 574 0 11 24 -28 54 -87 30 -59 64 -122 77 -140 28 -42 116
-128 130 -128 6 0 -13 42 -41 93 -118 214 -185 360 -185 405 0 41 -1 42 -15
22 -8 -12 -25 -33 -37 -48 l-22 -27 0 90 c0 50 4 126 8 170 4 44 7 82 5 83
-11 15 -59 -122 -94 -268 -33 -137 -53 -196 -90 -270 -69 -137 -120 -293 -120
-367 0 -67 -28 -167 -90 -323 -69 -174 -90 -241 -90 -290 0 -72 -24 -127 -75
-172 -25 -22 -54 -58 -64 -81 l-19 -40 -25 39 c-35 52 -59 122 -51 148 3 12
18 35 33 51 15 17 35 44 45 60 14 25 12 23 -16 -9 -19 -22 -39 -36 -45 -33
-14 9 -33 86 -33 134 0 96 81 79 97 -19 5 -36 13 -45 25 -32 9 8 -47 117 -71
138 -22 20 -22 20 -48 -6 -32 -32 -41 -106 -22 -175 7 -27 13 -73 14 -104 1
-67 35 -139 106 -228 l49 -60 -22 -15 c-13 -8 -63 -22 -113 -32 -69 -13 -95
-22 -113 -41 -41 -44 -22 -55 53 -29 22 8 77 17 121 21 80 7 81 7 87 -16 8
-37 76 -299 82 -320 4 -11 2 -19 -3 -19 -8 0 -260 144 -434 249 l-38 23 -1
806 c-1 505 -5 779 -10 732 -53 -469 -59 -570 -59 -1080 l0 -498 168 -99 c92
-55 190 -112 217 -128 28 -15 124 -72 215 -125 91 -53 226 -132 300 -175 130
-76 233 -136 444 -260 l100 -58 50 28 c28 15 76 43 106 61 83 49 343 201 445
259 50 29 185 107 300 175 116 68 264 155 330 193 66 38 141 83 168 99 l47 30
0 507 c0 499 -3 557 -40 906 -5 50 -13 126 -17 170 -5 48 -10 -246 -13 -734
l-5 -815 -80 -46 c-44 -26 -161 -94 -260 -152 -99 -57 -193 -113 -208 -123
-16 -10 -31 -14 -36 -9 -5 5 -18 70 -30 144 -20 119 -35 211 -71 410 -5 30
-17 96 -25 145 -33 185 -85 434 -119 568 -28 111 -42 149 -75 198 -44 67 -51
106 -32 206 5 26 14 77 20 113 68 398 92 523 105 548 37 72 129 126 260 152
50 10 159 40 241 66 201 62 189 60 183 43 -3 -8 -20 -72 -37 -144 -18 -71 -42
-143 -53 -158 -25 -37 -20 -57 21 -81 84 -49 251 -61 348 -25 102 38 156 97
104 114 -11 3 -22 14 -24 23 -4 13 -5 13 -6 2 -1 -12 -18 -15 -98 -13 l-98 1
85 -9 c116 -12 132 -17 128 -36 -4 -24 -53 -49 -126 -68 -59 -15 -67 -15 -119
1 -69 22 -132 76 -113 99 14 17 7 19 -37 6 -17 -5 -33 -7 -36 -5 -7 7 81 306
94 318 8 8 9 -6 5 -49 l-5 -60 11 58 11 59 62 28 c43 19 64 35 69 51 7 22 9
20 31 -26 30 -62 32 -53 4 17 l-20 52 53 163 53 163 125 50 c69 27 129 50 133
50 5 0 6 -15 2 -32 -4 -22 -3 -28 3 -19 8 11 10 11 15 0 3 -8 6 0 6 17 1 18 8
45 16 60 18 35 20 68 3 61 -32 -12 -249 -59 -253 -55 -3 2 10 49 28 104 32 95
35 100 75 119 44 21 72 69 72 123 0 34 -39 74 -92 96 -50 21 -61 20 -92 -9z
m65 -31 c6 -37 6 -38 8 -6 1 34 31 48 31 15 0 -13 3 -14 8 -6 5 9 16 3 36 -18
27 -28 28 -32 17 -69 -15 -50 -24 -55 -58 -34 -17 11 -23 12 -15 4 21 -24 14
-32 -23 -28 -43 5 -42 -15 1 -22 28 -5 29 -6 8 -20 -11 -8 -34 -51 -50 -95
-27 -73 -29 -77 -32 -45 -1 19 1 78 5 130 l8 95 32 0 c17 0 29 3 26 8 -6 10
-73 5 -73 -5 0 -4 -6 -8 -13 -8 -8 0 -11 14 -9 45 3 34 11 53 34 76 38 37 51
33 59 -17z m-134 -561 c-2 -5 -21 -60 -42 -123 -20 -63 -40 -119 -45 -123 -4
-4 -23 36 -44 89 -20 53 -35 99 -33 100 2 2 35 17 73 33 70 30 99 37 91 24z
m-127 -195 c28 -73 31 -86 21 -120 -10 -32 -17 -39 -52 -48 -23 -6 -44 -9 -47
-6 -9 10 32 256 43 256 2 0 18 -37 35 -82z m-1791 -948 c12 -63 26 -137 31
-163 21 -101 9 -174 -66 -428 -25 -86 -49 -196 -58 -265 -45 -349 -86 -840
-86 -1036 0 -76 -3 -138 -7 -138 -18 0 -142 82 -147 98 -18 59 -116 477 -116
494 0 34 29 47 107 48 81 0 123 12 123 35 0 8 -11 21 -26 27 -20 10 -30 9 -54
-5 -21 -13 -52 -17 -120 -17 -91 0 -92 0 -86 23 4 12 14 105 22 207 l16 185
49 103 c27 57 49 105 49 107 0 2 23 52 51 112 46 96 52 119 60 203 9 100 9 98
137 370 38 79 91 165 98 157 1 -1 12 -54 23 -117z m-530 -1323 c1 -10 -10 -22
-25 -27 -36 -14 -42 -13 -55 11 -16 31 -3 84 24 96 20 9 24 7 39 -26 9 -20 17
-44 17 -54z m54 -132 c12 -43 19 -69 76 -279 28 -105 48 -192 46 -195 -3 -2
-18 5 -33 16 -15 11 -37 23 -49 27 -40 13 -37 6 -114 321 -11 44 -22 88 -25
97 -3 11 4 22 23 32 40 22 65 16 76 -19z"/>
<path d="M1351 1404 c0 -11 3 -14 6 -6 3 7 2 16 -1 19 -3 4 -6 -2 -5 -13z"/>
<path d="M1361 1354 c0 -11 3 -14 6 -6 3 7 2 16 -1 19 -3 4 -6 -2 -5 -13z"/>
<path d="M2248 4483 c6 -2 18 -2 25 0 6 3 1 5 -13 5 -14 0 -19 -2 -12 -5z"/>
<path d="M2328 4483 c7 -3 16 -2 19 1 4 3 -2 6 -13 5 -11 0 -14 -3 -6 -6z"/>
<path d="M2271 4436 c2 -2 22 -6 44 -9 27 -4 35 -3 25 3 -14 9 -79 15 -69 6z"/>
<path d="M2216 4415 c-11 -8 -16 -15 -10 -15 5 0 18 7 28 15 11 8 16 15 10 15
-5 0 -18 -7 -28 -15z"/>
<path d="M2255 4370 c-3 -6 1 -7 9 -4 18 7 21 14 7 14 -6 0 -13 -4 -16 -10z"/>
<path d="M2168 4334 c-16 -8 -28 -17 -28 -20 0 -2 9 0 19 6 11 5 29 10 40 10
11 0 23 5 26 10 9 15 -26 11 -57 -6z"/>
<path d="M2007 4229 c-4 -13 -4 -33 -1 -46 3 -12 -1 -36 -10 -54 l-16 -32 21
19 c16 15 20 27 16 56 -3 20 -1 40 4 45 4 4 4 14 0 21 -6 10 -10 8 -14 -9z"/>
<path d="M2482 4178 c-2 -61 -15 -103 -38 -130 -14 -15 -20 -14 -78 13 -59 27
-67 29 -112 19 -82 -19 -96 -46 -41 -81 25 -16 46 -19 98 -17 63 3 66 2 59
-17 -4 -11 -15 -67 -25 -125 -10 -58 -22 -111 -28 -117 -5 -7 -22 -13 -36 -13
-30 0 -65 32 -100 90 -26 44 -27 19 -2 -37 22 -47 45 -63 93 -63 45 0 65 17
71 60 20 153 29 185 63 224 42 49 42 49 9 -158 -14 -85 -25 -157 -25 -159 0
-2 35 -7 78 -10 99 -7 360 17 326 30 -7 2 -10 14 -7 26 4 21 4 21 -9 -2 -15
-27 -10 -27 -104 -11 -71 11 -72 12 -143 84 -68 71 -71 76 -71 122 0 27 -3 66
-6 87 -10 58 11 45 36 -24 20 -51 31 -66 68 -90 25 -16 48 -27 50 -24 4 4 -11
76 -24 109 -10 27 8 18 86 -41 89 -67 118 -98 123 -132 3 -21 4 -19 6 8 1 30
-7 42 -61 95 -35 34 -75 71 -90 83 -21 17 -28 32 -29 60 -1 22 -3 29 -6 18 -9
-39 -20 -35 -71 23 -44 51 -51 66 -55 108 l-3 49 -2 -57z"/>
<path d="M2273 4213 c9 -2 23 -2 30 0 6 3 -1 5 -18 5 -16 0 -22 -2 -12 -5z"/>
<path d="M1960 4070 c-6 -11 -8 -20 -6 -20 3 0 10 9 16 20 6 11 8 20 6 20 -3
0 -10 -9 -16 -20z"/>
<path d="M4055 3995 c-9 -32 -14 -59 -12 -61 2 -3 11 21 20 53 9 31 15 58 13
61 -2 2 -12 -22 -21 -53z"/>
<path d="M3547 3861 c-56 -87 -73 -99 -181 -126 -170 -43 -264 -56 -331 -45
-33 5 -94 9 -135 8 -41 -1 -57 -3 -35 -4 22 -2 81 -8 130 -15 74 -9 109 -8
200 6 153 22 242 43 295 69 40 20 48 30 73 90 16 37 27 69 25 71 -2 2 -20 -22
-41 -54z"/>
<path d="M4092 3815 c-1 -49 -5 -147 -9 -217 l-6 -128 -26 0 c-14 -1 -54 -7
-88 -14 -45 -10 -63 -10 -67 -2 -2 6 -5 3 -5 -6 -1 -10 -5 -18 -11 -18 -23 0
-8 -37 23 -55 28 -18 51 -20 192 -20 164 0 262 14 300 41 20 15 20 16 -5 35
-14 10 -29 23 -35 27 -5 5 -34 77 -64 160 -29 84 -55 151 -57 149 -2 -2 19
-70 46 -152 28 -81 49 -149 48 -150 -2 -2 -25 1 -53 5 -27 5 -78 9 -112 9
l-63 1 -3 213 c-1 116 -3 172 -5 122z m201 -380 c24 -10 17 -26 -23 -49 -46
-27 -202 -28 -277 -2 -123 42 -63 67 147 62 74 -2 143 -7 153 -11z"/>
<path d="M3997 3793 c-9 -31 -15 -58 -13 -61 2 -2 12 22 21 53 9 32 14 59 12
61 -2 3 -11 -21 -20 -53z"/>
<path d="M3971 3704 c0 -11 3 -14 6 -6 3 7 2 16 -1 19 -3 4 -6 -2 -5 -13z"/>
<path d="M3951 3643 c-1 -6 -4 -20 -7 -30 -5 -17 -5 -17 6 0 6 10 9 23 6 30
-3 9 -5 9 -5 0z"/>
<path d="M1780 3586 c-64 -32 -110 -82 -110 -115 1 -9 7 -2 14 14 18 40 49 67
121 103 33 17 55 31 50 32 -6 0 -40 -15 -75 -34z"/>
<path d="M3931 3574 c0 -11 3 -14 6 -6 3 7 2 16 -1 19 -3 4 -6 -2 -5 -13z"/>
<path d="M3766 3550 c3 -14 11 -32 16 -40 6 -10 7 -7 2 10 -3 14 -11 32 -16
40 -6 10 -7 7 -2 -10z"/>
<path d="M3911 3513 c-1 -6 -4 -20 -7 -30 -5 -17 -5 -17 6 0 6 10 9 23 6 30
-3 9 -5 9 -5 0z"/>
<path d="M3800 3455 c0 -5 5 -17 10 -25 5 -8 10 -10 10 -5 0 6 -5 17 -10 25
-5 8 -10 11 -10 5z"/>
<path d="M3542 3420 c0 -19 2 -27 5 -17 2 9 2 25 0 35 -3 9 -5 1 -5 -18z"/>
<path d="M1651 3404 c0 -11 3 -14 6 -6 3 7 2 16 -1 19 -3 4 -6 -2 -5 -13z"/>
<path d="M3826 3390 c4 -14 15 -43 25 -65 11 -22 16 -29 13 -15 -4 14 -15 43
-25 65 -11 22 -16 29 -13 15z"/>
<path d="M1631 3330 c-6 -28 -11 -59 -10 -68 1 -9 7 12 15 47 8 35 12 66 10
68 -2 3 -9 -19 -15 -47z"/>
<path d="M3531 3364 c0 -11 3 -14 6 -6 3 7 2 16 -1 19 -3 4 -6 -2 -5 -13z"/>
<path d="M3522 3305 c0 -16 2 -22 5 -12 2 9 2 23 0 30 -3 6 -5 -1 -5 -18z"/>
<path d="M1605 3193 c-4 -27 -11 -64 -16 -83 -5 -19 -9 -44 -8 -55 1 -28 27
70 35 132 3 29 4 53 1 53 -3 0 -9 -21 -12 -47z"/>
<path d="M1571 3014 c0 -11 3 -14 6 -6 3 7 2 16 -1 19 -3 4 -6 -2 -5 -13z"/>
<path d="M1463 2682 c-39 -73 -100 -239 -91 -248 3 -2 10 14 17 37 7 22 37 95
67 161 31 66 54 122 52 123 -2 2 -22 -31 -45 -73z"/>
<path d="M1332 2240 c0 -14 2 -19 5 -12 2 6 2 18 0 25 -3 6 -5 1 -5 -13z"/>
<path d="M1312 2125 c0 -16 2 -22 5 -12 2 9 2 23 0 30 -3 6 -5 -1 -5 -18z"/>
<path d="M1295 2033 c-4 -26 -11 -61 -16 -78 -7 -21 -6 -26 1 -19 11 11 34
133 26 141 -2 3 -7 -17 -11 -44z"/>
</g>
</svg>
