<?xml version="1.0" standalone="no"?>
<!DOCTYPE svg PUBLIC "-//W3C//DTD SVG 20010904//EN"
 "http://www.w3.org/TR/2001/REC-SVG-20010904/DTD/svg10.dtd">
<svg version="1.0" xmlns="http://www.w3.org/2000/svg"
 width="300.000000pt" height="247.000000pt" viewBox="0 0 300.000000 247.000000"
 preserveAspectRatio="xMidYMid meet">
<metadata>
Created by potrace 1.10, written by Peter Selinger 2001-2011
</metadata>
<g transform="translate(0.000000,247.000000) scale(0.100000,-0.100000)"
fill="#000000" stroke="none">
<path d="M875 1745 c-275 -277 -501 -507 -502 -512 -2 -4 224 -235 502 -513
l505 -505 240 240 240 240 0 249 -1 249 93 29 c51 16 111 34 134 40 l40 11 28
92 c31 103 31 150 0 65 -14 -39 -28 -59 -50 -72 -30 -17 -136 -42 -212 -50
l-33 -3 1 234 1 233 -238 239 c-131 131 -240 238 -243 238 -3 -1 -230 -227
-505 -504z m722 203 l213 -213 0 -214 0 -214 -58 7 c-33 4 -71 2 -85 -3 -14
-6 -82 -12 -151 -14 l-125 -4 4 26 c3 14 11 64 20 110 8 47 13 86 11 88 -11
11 -34 -43 -44 -106 -7 -40 -15 -77 -18 -82 -3 -5 -20 -9 -39 -9 -40 0 -71 33
-81 86 -8 42 -24 35 -24 -11 0 -26 -8 -40 -36 -63 l-35 -29 63 -61 c59 -57 66
-61 143 -76 44 -9 119 -30 165 -46 47 -17 88 -30 92 -30 4 0 10 21 14 47 5 37
17 57 52 95 25 26 48 48 51 48 4 0 7 -24 6 -52 l0 -53 38 2 37 2 0 -222 0
-222 -114 -116 c-68 -70 -118 -113 -123 -108 -5 5 -26 1 -51 -11 -60 -29 -67
-25 -38 25 l27 45 -25 0 c-59 0 -236 82 -255 118 -9 17 -41 171 -41 198 0 28
16 13 42 -38 49 -98 112 -183 136 -182 12 0 54 1 92 2 76 2 88 12 38 33 -43
17 -155 100 -243 179 -85 77 -92 87 -75 113 7 11 15 47 17 79 3 32 9 58 14 58
5 0 42 -11 84 -24 41 -13 75 -20 75 -15 0 5 16 -1 35 -13 38 -25 51 -57 15
-38 -16 8 -26 4 -55 -22 -24 -21 -35 -37 -32 -50 4 -15 -1 -18 -37 -18 -23 0
-47 5 -53 11 -6 6 -22 9 -37 7 -22 -3 -7 -16 108 -96 73 -50 137 -92 141 -92
4 0 -31 30 -78 67 -84 66 -129 116 -70 77 59 -38 215 -125 219 -122 2 2 -35
42 -81 88 -47 47 -85 88 -85 91 0 10 59 29 90 29 30 0 48 -17 76 -70 l18 -35
6 30 c6 28 7 26 18 -25 15 -71 20 -101 21 -124 2 -32 9 -14 24 59 9 39 18 84
22 100 l6 30 -16 -27 c-9 -16 -18 -28 -21 -28 -3 0 -4 26 -3 58 2 31 0 62 -3
68 -11 17 -124 55 -283 94 -72 17 -85 24 -126 67 -25 26 -50 57 -56 68 -24 42
-21 6 4 -66 35 -97 37 -177 5 -216 -49 -61 -49 -62 7 -179 28 -59 65 -130 82
-157 32 -53 33 -65 1 -48 -30 16 -85 97 -117 171 -30 69 -47 96 -40 64 2 -10
29 -92 59 -182 31 -90 56 -165 56 -167 0 -3 -58 55 -129 127 l-129 132 18 37
c11 20 32 90 49 156 30 123 53 183 72 183 6 0 7 -5 3 -11 -8 -13 -21 -219 -14
-219 3 0 17 22 32 48 15 26 35 59 44 73 17 26 16 32 -11 143 -16 64 -32 116
-35 116 -3 0 -32 -15 -65 -33 -69 -37 -78 -51 -100 -167 -15 -81 -55 -252 -59
-257 -1 -2 -95 91 -209 205 l-207 207 463 463 c254 254 464 462 467 462 3 0
100 -96 217 -212z m-331 -642 c11 -8 40 -16 64 -17 25 -2 52 -10 60 -17 11
-12 39 -14 137 -9 l124 5 -21 -32 c-12 -17 -26 -43 -32 -58 -12 -35 -25 -35
-136 -3 -48 14 -107 30 -131 36 -49 12 -129 78 -117 97 10 16 27 15 52 -2z
m590 -27 c4 -7 24 -9 55 -5 33 5 49 3 49 -4 0 -6 -4 -9 -9 -5 -5 3 -12 1 -15
-4 -3 -5 -18 -12 -33 -16 -14 -3 -37 -15 -50 -25 -20 -15 -28 -16 -53 -7 -39
15 -41 49 -2 64 37 15 50 15 58 2z m-772 -81 c11 -41 7 -56 -11 -52 -22 5 -33
-2 -60 -41 -19 -28 -56 -133 -56 -162 0 -7 -4 -13 -9 -13 -19 0 26 225 51 254
33 38 76 45 85 14z m415 -149 c17 -6 31 -15 31 -21 0 -5 9 -7 19 -3 16 5 18 2
14 -15 -5 -21 -45 -29 -40 -8 1 6 -13 22 -32 35 -38 26 -37 28 8 12z m-552
-141 c-2 -7 -12 -39 -21 -70 -17 -59 -31 -77 -47 -61 -6 6 -2 19 10 34 10 14
24 44 30 67 7 23 17 42 22 42 6 0 9 -6 6 -12z m481 -371 c7 -5 12 -14 11 -20
-6 -52 28 -77 80 -59 18 6 33 7 36 2 7 -11 -154 -180 -171 -180 -15 0 -194
180 -194 196 0 7 5 16 10 19 6 3 10 23 10 45 0 31 3 37 18 34 9 -3 26 1 36 9
16 12 27 11 85 -12 36 -14 72 -30 79 -34z"/>
<path d="M1227 1869 c-32 -22 -57 -41 -57 -42 -10 -49 -10 -78 -1 -73 6 4 11
14 11 22 0 27 32 64 77 91 79 46 174 16 207 -67 19 -48 27 -52 17 -7 -18 78
-68 117 -148 117 -42 0 -58 -6 -106 -41z"/>
<path d="M1265 1852 c-35 -22 -56 -45 -59 -66 -1 -8 -9 -23 -18 -33 -18 -21
-34 -83 -21 -83 5 0 20 12 34 26 32 35 126 76 153 67 20 -6 45 -10 74 -12 6
-1 11 -6 10 -12 -4 -16 14 -21 32 -9 12 7 11 13 -10 35 -54 58 -133 72 -205
35 -49 -25 -59 -18 -14 9 51 31 97 37 148 18 l44 -16 -25 26 c-35 34 -102 41
-143 15z m120 -64 c6 -6 -3 -7 -27 -3 -29 6 -43 2 -67 -14 -16 -12 -37 -21
-46 -21 -20 0 41 45 72 53 22 5 54 -2 68 -15z"/>
<path d="M1270 1724 c-25 -13 -51 -32 -57 -41 -17 -22 -16 -58 0 -75 17 -16
28 -68 15 -68 -10 0 1 -72 12 -80 4 -3 13 -22 21 -43 16 -46 44 -77 68 -77 15
0 21 13 30 63 7 34 15 71 17 82 5 18 1 20 -33 17 -51 -5 -97 28 -73 51 26 26
72 29 113 8 l38 -19 13 21 c8 12 16 44 19 70 4 46 3 49 -32 72 -44 30 -51 31
-51 4 0 -18 -3 -19 -15 -9 -8 6 -24 9 -37 5 -22 -6 -21 -5 5 19 37 34 11 33
-53 0z m9 -61 c0 -10 1 -27 3 -37 2 -10 -3 -21 -9 -23 -15 -5 -36 44 -29 64 8
19 35 16 35 -4z m96 -13 c3 -5 -3 -10 -14 -10 -12 0 -21 -4 -21 -10 0 -5 -10
-14 -22 -20 -21 -10 -21 -10 -5 3 22 19 22 27 -3 27 -11 0 -20 5 -20 10 0 6
18 10 39 10 22 0 43 -4 46 -10z m40 -29 c-7 -22 -29 -28 -40 -10 -9 14 26 52
38 40 5 -5 6 -18 2 -30z m-94 -161 c12 0 12 -57 -1 -65 -5 -3 -16 8 -25 24
-19 38 -19 55 1 47 9 -3 20 -6 25 -6z"/>
<path d="M1160 1627 c0 -20 -5 -39 -11 -43 -18 -11 -51 -93 -45 -112 4 -10 22
-33 41 -52 51 -50 63 -33 47 67 -7 43 -15 98 -18 123 -7 56 -14 65 -14 17z"/>
<path d="M1470 1636 c0 -26 47 -105 63 -106 4 0 7 15 7 33 0 25 -9 42 -35 67
l-35 34 0 -28z"/>
<path d="M1444 1479 c6 -45 14 -61 49 -96 43 -45 48 -47 109 -57 34 -6 37 -5
43 23 4 17 4 39 1 48 -6 19 -114 108 -122 101 -2 -3 3 -22 11 -43 9 -20 14
-39 11 -42 -11 -11 -77 52 -83 79 -11 54 -26 44 -19 -13z m156 -95 c0 -8 -9
-14 -20 -14 -19 0 -27 19 -14 33 10 9 34 -4 34 -19z"/>
<path d="M2348 1883 c-18 -21 -30 -73 -17 -73 5 0 9 5 9 11 0 5 4 8 9 4 12 -7
31 26 31 54 0 26 -12 27 -32 4z"/>
<path d="M2389 1857 c-4 -31 -1 -40 18 -52 22 -15 24 -14 34 9 10 20 9 28 -6
42 -13 14 -18 15 -25 4 -6 -10 -9 -6 -12 11 -3 19 -5 15 -9 -14z"/>
<path d="M2347 1803 c-4 -3 -7 -38 -6 -77 l1 -71 15 45 c9 25 23 51 32 58 14
11 14 12 -3 10 -10 -2 -21 3 -24 11 -3 9 1 11 17 6 24 -7 29 10 5 19 -20 8
-29 8 -37 -1z"/>
<path d="M2262 1664 c-34 -69 -62 -128 -62 -131 0 -3 8 1 18 9 9 9 35 25 58
36 l41 21 7 92 c4 50 5 93 3 95 -2 2 -31 -53 -65 -122z"/>
<path d="M2470 1508 c-12 -40 -39 -131 -61 -203 -21 -71 -39 -133 -39 -137 0
-4 12 -3 26 2 14 6 36 10 49 10 23 0 23 1 30 155 11 232 23 249 24 35 l1 -185
65 0 c36 -1 65 -1 65 0 0 0 -24 73 -54 160 -29 88 -57 175 -61 192 -11 55 -23
47 -45 -29z m84 -222 c3 -13 9 -31 12 -40 4 -10 1 -16 -9 -16 -17 0 -27 21
-27 56 0 31 16 31 24 0z"/>
<path d="M2275 1511 c-6 -5 -26 -14 -46 -20 l-36 -12 20 -54 c11 -30 23 -55
26 -55 3 0 18 34 32 75 24 71 25 86 4 66z"/>
<path d="M2179 1354 c-15 -75 -15 -75 5 -70 12 3 24 6 27 6 17 0 17 51 1 93
l-18 46 -15 -75z"/>
<path d="M2233 1281 c-7 -11 -26 -22 -42 -26 -24 -5 -31 -13 -36 -38 -2 -18
-9 -59 -15 -91 -5 -33 -10 -63 -10 -67 0 -4 47 -9 105 -11 58 -2 105 -2 105
-2 0 6 -32 93 -40 109 -5 11 -20 48 -32 83 -21 55 -24 60 -35 43z m22 -118
c33 -73 28 -85 -32 -81 l-48 3 2 48 c6 101 41 115 78 30z"/>
<path d="M2107 1133 c-15 -53 -26 -97 -24 -99 1 -2 8 1 15 5 11 7 48 179 39
187 -2 2 -15 -40 -30 -93z"/>
<path d="M2396 1151 c-16 -6 -14 -9 15 -21 70 -29 246 -10 197 21 -16 11 -186
10 -212 0z"/>
<path d="M2130 1026 c0 -22 63 -56 103 -56 41 0 117 27 117 41 0 14 -15 17
-122 23 -81 5 -98 4 -98 -8z"/>
</g>
</svg>
